<!-- icon666.com - MILLIONS OF FREE VECTOR ICONS --><svg id="Capa_1" enable-background="new 0 0 512 512" viewBox="0 0 512 512" xmlns="http://www.w3.org/2000/svg"><g><circle cx="286" cy="437" r="15"></circle><circle cx="336" cy="210" r="15"></circle><circle cx="176" cy="210" r="15"></circle><circle cx="226" cy="437" r="15"></circle><path d="m296 285h-80c-8.284 0-15 6.716-15 15s6.716 15 15 15h80c8.284 0 15-6.716 15-15s-6.716-15-15-15z"></path><path d="m226 255h60c8.284 0 15-6.716 15-15s-6.716-15-15-15h-60c-8.284 0-15 6.716-15 15s6.716 15 15 15z"></path><path d="m500.577 260.716c-6.206-1.989-12.993.26-16.783 5.565l-9.313 13.039c-9.126 12.777-20.548 23.476-33.48 31.705v-5.748c0-22.778-6.679-44.837-19.314-63.79-12.479-18.721-19.533-40.269-20.556-62.642 41.096-6.326 74.515-38.041 82.149-80.033 4.709-25.895 13.064-50.961 24.834-74.5l1.302-2.603c2.326-4.649 2.078-10.172-.654-14.595-2.735-4.422-7.563-7.114-12.762-7.114h-35.548c-38.93 0-75.961 16.803-101.599 46.101l-6.859 7.84-14.341-9.452c-24.306-16.021-52.542-24.489-81.653-24.489s-57.347 8.468-81.653 24.488l-14.341 9.452-6.86-7.84c-25.637-29.297-62.668-46.1-101.598-46.1h-35.548c-5.198 0-10.026 2.691-12.759 7.113s-2.982 9.943-.658 14.593l1.306 2.612c11.768 23.538 20.123 48.602 24.832 74.494 7.635 41.992 41.054 73.707 82.149 80.033-1.022 22.373-8.076 43.921-20.556 62.642-12.635 18.953-19.314 41.012-19.314 63.79v5.748c-12.932-8.229-24.354-18.928-33.48-31.705l-9.313-13.039c-3.79-5.307-10.575-7.556-16.783-5.565-6.211 1.989-10.424 7.763-10.424 14.284v10c0 50.89 28.308 95.287 70 118.288v13.712c0 52.383 42.617 95 95 95h180c52.383 0 95-42.617 95-95v-13.712c41.692-23.002 70-67.399 70-118.288v-10c0-6.521-4.213-12.295-10.423-14.284zm-461.889 63.726c23.171 19.495 51.883 31.745 82.312 34.798v5.76c0 8.483 1.413 16.709 4.053 24.417-39.197-4.08-72.057-29.795-86.365-64.975zm127.312 157.558c-35.841 0-65-29.159-65-65v-1.61c11.167 3 22.898 4.61 35 4.61h8.969c4.421 4.09 9.363 7.682 14.767 10.658l7.29 43.74c.438 2.631 1.117 5.164 1.975 7.603h-3.001zm159.382-72.534-10 60c-1.211 7.263-7.434 12.534-14.796 12.534h-89.172c-7.362 0-13.585-5.271-14.796-12.534l-10-60c-.737-4.422.453-8.74 3.351-12.161s6.962-5.305 11.445-5.305h109.172c4.483 0 8.548 1.884 11.445 5.305s4.088 7.739 3.351 12.161zm-14.796-47.466h-109.172c-13.254 0-25.77 5.801-34.336 15.914-3.367 3.974-5.964 8.445-7.759 13.197-5.305-7.451-8.319-16.506-8.319-26.111v-50c0-8.284-6.716-15-15-15s-15 6.716-15 15v14.056c-6.808-.855-13.496-2.285-20-4.255v-19.523c0-16.836 4.937-33.141 14.275-47.149 16.829-25.245 25.725-54.625 25.725-84.964v-8.165c0-29.801-11.605-57.818-32.678-78.891l-1.716-1.716c-5.857-5.857-15.355-5.857-21.213 0s-5.858 15.355 0 21.213l1.716 1.716c11.295 11.295 18.852 25.325 22.09 40.592-25.709-6.452-46.038-27.384-50.963-54.469-3.962-21.791-10.256-43.052-18.767-63.445h12.079c30.279 0 59.081 13.069 79.021 35.856l15.477 17.688c4.938 5.642 13.282 6.772 19.544 2.646l25.268-16.653c19.39-12.781 41.916-19.537 65.142-19.537s45.752 6.756 65.144 19.537l25.268 16.653c6.264 4.127 14.606 2.995 19.544-2.646l15.476-17.688c19.939-22.787 48.741-35.856 79.02-35.856h12.078c-8.512 20.394-14.805 41.654-18.767 63.445-4.924 27.086-25.253 48.017-50.963 54.469 3.238-15.267 10.794-29.297 22.09-40.592l1.716-1.716c5.858-5.857 5.858-15.355 0-21.213-5.857-5.857-15.355-5.857-21.213 0l-1.716 1.716c-21.072 21.073-32.677 49.09-32.677 78.891v8.165c0 30.339 8.896 59.719 25.725 84.963 9.338 14.009 14.275 30.313 14.275 47.149v19.523c-6.504 1.971-13.192 3.401-20 4.255v-14.055c0-8.284-6.716-15-15-15s-15 6.716-15 15v50c0 9.601-3.025 18.642-8.327 26.089-1.795-4.743-4.389-9.207-7.751-13.175-8.567-10.113-21.082-15.914-34.336-15.914zm100.414 55c0 35.841-29.159 65-65 65h-2.985c.856-2.437 1.52-4.974 1.958-7.603l7.29-43.74c5.405-2.975 10.346-6.567 14.767-10.658h8.97c12.102 0 23.833-1.61 35-4.61zm-24.053-27.583c2.64-7.708 4.053-15.934 4.053-24.417v-5.76c30.429-3.053 59.141-15.303 82.312-34.798-14.308 35.18-47.168 60.895-86.365 64.975z"></path></g></svg>